PathFileType	4	(X/Y/Z)	S:\OneDrive - The University of Tokyo\ìåëÂéˆã∆\ÉoÉCÉÅÉJ\ë™íË\hirabayashi_2\Trimmed\Trimmed_BarL1Hirabayashi1.trc
DataRate	CameraRate	NumFrames	NumMarkers	Units	OrigDataRate	OrigDataStartFrame	OrigNumFrames
200.00	200.00	       12	12	mm	200.00	232	       265
Frame#	Time	BarR0			BarR50			BarR100			BarR130			BarR180			BarR230			BarL0			BarL50			BarL100			BarL130			BarL180			BarL230			
		X1	Y1	Z1	X2	Y2	Z2	X3	Y3	Z3	X4	Y4	Z4	X5	Y5	Z5	X6	Y6	Z6	X7	Y7	Z7	X8	Y8	Z8	X9	Y9	Z9	X10	Y10	Z10	X11	Y11	Z11	X12	Y12	Z12	

232	1.155	-576.32715	2755.26440	1664.33948	-605.66260	2306.24146	1662.11023	-637.73407	1851.66980	1661.80811	-661.27795	1349.16895	1661.60632	-690.45801	902.38013	1662.27112	-714.06494	454.41562	1663.79797	-1112.21326	2805.42407	1664.54773	-1138.88098	2354.25146	1648.51208	-1168.87268	1904.53662	1638.24988	-1196.55310	1404.12195	1637.22339	-1223.97583	953.36627	1648.71997	-1242.39478	507.38873	1667.04614	
233	1.160	-576.85236	2755.31250	1663.87390	-604.35760	2305.87573	1662.50757	-637.70740	1851.65088	1661.83008	-661.28284	1349.18701	1661.62109	-690.45453	902.37244	1662.26782	-714.06982	454.40744	1663.79431	-1112.20264	2805.41504	1664.52832	-1138.90820	2354.25073	1648.55920	-1168.80872	1904.50452	1638.30762	-1196.48938	1404.14355	1637.27661	-1223.94641	953.35254	1648.74707	-1242.36816	507.40228	1667.06348	
234	1.165	-576.82703	2755.29370	1663.88733	-604.34888	2305.88745	1662.51221	-637.75092	1851.68726	1661.81238	-661.28455	1349.18103	1661.62451	-690.43396	902.37964	1662.28967	-714.09375	454.41394	1663.81360	-1112.21936	2805.40845	1664.55627	-1138.89197	2354.22144	1648.57422	-1168.76904	1904.45569	1638.35437	-1196.52588	1404.15662	1637.33789	-1223.94263	953.33435	1648.82166	-1242.36389	507.38989	1667.09192	
235	1.170	-576.31671	2755.24927	1664.35364	-605.66583	2306.22168	1662.13806	-637.73285	1851.70789	1661.82849	-661.29651	1349.20642	1661.62402	-690.44073	902.37097	1662.28625	-714.11169	454.44257	1663.81348	-1112.19434	2805.38843	1664.55896	-1138.87659	2354.22729	1648.61768	-1168.77405	1904.39807	1638.73389	-1196.53284	1404.11865	1637.38037	-1223.92651	953.33398	1648.83984	-1242.36194	507.38492	1667.08484	
236	1.175	-576.79144	2755.32275	1663.88806	-604.32599	2305.89429	1662.51501	-637.73798	1851.69812	1661.82690	-661.31946	1349.22412	1661.62793	-690.45605	902.40833	1662.29541	-714.11627	454.45578	1663.80945	-1112.20874	2805.42407	1664.54321	-1138.88989	2354.22046	1648.60498	-1168.76526	1904.46301	1638.39661	-1196.54260	1404.16284	1637.40247	-1223.96521	953.32990	1648.84644	-1242.37549	507.38025	1667.08118	
237	1.180	-576.82477	2755.32422	1663.86877	-604.33948	2305.91528	1662.49097	-637.76001	1851.71021	1661.83948	-661.34161	1349.20264	1661.62512	-690.47333	902.43719	1662.28967	-714.12946	454.44891	1663.80603	-1112.22974	2805.41455	1664.54749	-1138.89258	2354.23169	1648.61243	-1168.78687	1904.38953	1638.76428	-1196.55945	1404.14734	1637.43176	-1223.97180	953.32574	1648.85547	-1242.35669	507.37100	1667.08545	
238	1.185	-576.82214	2755.34497	1663.87891	-604.38245	2305.94824	1662.50000	-637.75757	1851.72083	1661.82397	-661.34631	1349.24512	1661.60901	-690.46570	902.45447	1662.29395	-714.10693	454.47064	1663.81091	-1112.22913	2805.43750	1664.53186	-1138.92834	2354.26099	1648.59875	-1168.82422	1904.53064	1638.38855	-1196.56201	1404.16797	1637.43909	-1223.98267	953.33624	1648.85254	-1242.38306	507.39526	1667.05896	
239	1.190	-576.31055	2755.28882	1664.34973	-605.67981	2306.27393	1662.15112	-637.79041	1851.75500	1661.83386	-661.36414	1349.21606	1661.63062	-690.47882	902.43323	1662.30066	-714.08337	454.47989	1663.80920	-1112.23962	2805.45020	1664.54871	-1138.92041	2354.26978	1648.60742	-1168.80566	1904.42688	1638.73987	-1196.58984	1404.16101	1637.41602	-1224.01428	953.34668	1648.81885	-1242.40771	507.40497	1667.06665	
240	1.195	-576.82806	2755.34863	1663.87659	-604.35870	2305.95776	1662.50317	-637.77252	1851.70081	1661.84143	-661.35266	1349.20947	1661.64429	-690.49048	902.41022	1662.29358	-714.05829	454.43790	1663.81091	-1112.22119	2805.44263	1664.55640	-1138.95483	2354.26904	1648.58264	-1168.82117	1904.52832	1638.37231	-1196.60730	1404.17822	1637.36267	-1224.02478	953.37299	1648.82483	-1242.43469	507.45062	1667.08020	
241	1.200	-576.32080	2755.28198	1664.34204	-605.74249	2306.25635	1662.15161	-637.82355	1851.73022	1661.84253	-661.33978	1349.21899	1661.65845	-690.45471	902.43604	1662.30396	-714.04639	454.48727	1663.81323	-1112.22546	2805.46851	1664.55896	-1138.97742	2354.27441	1648.58130	-1168.84766	1904.55286	1638.34424	-1196.58545	1404.19238	1637.33374	-1224.00183	953.36633	1648.79822	-1242.46130	507.45459	1667.08887	
242	1.205	-576.30518	2755.28345	1664.35498	-605.67047	2306.23877	1662.13147	-637.76056	1851.68469	1661.84070	-661.34210	1349.22266	1661.64502	-690.45276	902.42352	1662.29333	-714.05347	454.44781	1663.81116	-1112.23389	2805.46436	1664.54211	-1138.92261	2354.28638	1648.56580	-1168.88416	1904.54736	1638.31836	-1196.59473	1404.14624	1637.30884	-1224.02649	953.40277	1648.77039	-1242.45142	507.47556	1667.07288	
243	1.210	-576.28320	2755.27124	1664.34399	-605.70038	2306.26758	1662.15283	-637.72870	1851.69727	1661.84265	-661.28436	1349.20850	1661.64209	-690.42236	902.44147	1662.29663	-714.04376	454.45920	1663.80811	-1112.22363	2805.44946	1664.55676	-1138.93677	2354.28271	1648.52991	-1168.83716	1904.50098	1638.29675	-1196.56274	1404.14978	1637.26013	-1224.01257	953.38055	1648.73755	-1242.42114	507.44382	1667.07629	
